<svg xmlns="http://www.w3.org/2000/svg" width="1440" height="900" viewBox="0 0 1440 900" role="img" aria-labelledby="title desc">
<title id="title">Sawasdee Hub login experience</title><desc id="desc">Enterprise login portal with Thai-inspired AI robot mascot and secure SSO options.</desc>
<defs>
  <linearGradient id="sky" x1="0" y1="0" x2="1" y2="1"><stop offset="0" stop-color="#eaf4ff"/><stop offset=".52" stop-color="#cfe5ff"/><stop offset="1" stop-color="#ffe8c8"/></linearGradient>
  <linearGradient id="lake" x1="0" y1="0" x2="0" y2="1"><stop stop-color="#9bc9eb" stop-opacity=".72"/><stop offset="1" stop-color="#e8f4fb" stop-opacity=".2"/></linearGradient>
  <linearGradient id="blue" x1="0" x2="1"><stop stop-color="#155eef"/><stop offset="1" stop-color="#0b4bd8"/></linearGradient>
  <filter id="shadow" x="-20%" y="-20%" width="140%" height="160%"><feDropShadow dx="0" dy="18" stdDeviation="26" flood-color="#0f274a" flood-opacity=".16"/></filter>
  <filter id="soft" x="-20%" y="-20%" width="140%" height="150%"><feDropShadow dx="0" dy="6" stdDeviation="12" flood-color="#155eef" flood-opacity=".12"/></filter>
</defs>
<style>
text{font-family:Inter,"Noto Sans Thai",Arial,sans-serif}.navy{fill:#102a56}.muted{fill:#64748b}.small{font-size:14px}.label{font-size:13px;font-weight:700;fill:#334155}.feature{font-size:14px;font-weight:700;fill:#17345e}
</style>
<rect width="1440" height="900" fill="url(#sky)"/>
<circle cx="172" cy="120" r="170" fill="#fff" opacity=".24"/><circle cx="1260" cy="90" r="210" fill="#fff" opacity=".2"/>
<g opacity=".55" fill="#7ba4ca"><rect x="0" y="468" width="1440" height="2"/><rect x="72" y="350" width="58" height="118" rx="2"/><rect x="142" y="390" width="78" height="78"/><rect x="1030" y="330" width="72" height="138"/><rect x="1118" y="360" width="45" height="108"/><rect x="1180" y="314" width="68" height="154"/><rect x="1266" y="380" width="92" height="88"/></g>
<g fill="#b57b2d" opacity=".72"><path d="M250 466h206l-20-26h-32l-28-35-28 35h-34l-25-31-23 31h-30z"/><path d="M346 405l25-76 25 76z"/><path d="M371 330l6-32 6 32z"/><path d="M184 466h58l-10-35h-38z"/><path d="M213 431l9-88 9 88z"/><path d="M208 355l14-46 14 46z"/></g>
<path d="M0 470 C300 438 505 516 760 474 C1030 430 1190 455 1440 425 L1440 900 L0 900Z" fill="url(#lake)"/>
<path d="M0 700 C250 660 430 732 690 694 C1010 646 1180 704 1440 664" fill="none" stroke="#fff" stroke-opacity=".34" stroke-width="2"/>
<g transform="translate(72 70)"><path d="M0 20 25 0l25 20-9 39H9z" fill="#d89b35"/><path d="M14 29 25 17l11 12-5 18H19z" fill="#fff" opacity=".9"/><text x="66" y="30" font-size="34" font-weight="800" class="navy">Sawasdee Hub</text><text x="67" y="56" font-size="16" class="muted">AI workspace for enterprise teams</text></g>
<text x="72" y="176" font-size="52" font-weight="800" class="navy">Work smarter, securely.</text>
<text x="72" y="217" font-size="20" fill="#48627f">A calm workspace for data, tasks, approvals, and AI-assisted decisions.</text>
<g transform="translate(72 254)"><g><rect width="156" height="54" rx="16" fill="#fff" opacity=".72"/><circle cx="28" cy="27" r="13" fill="#eaf2ff"/><path d="M22 27h12M28 21v12" stroke="#155eef" stroke-width="2"/><text x="50" y="32" class="feature">Smarter work</text></g><g transform="translate(172)"><rect width="156" height="54" rx="16" fill="#fff" opacity=".72"/><circle cx="28" cy="27" r="13" fill="#ecfdf5"/><path d="M22 28l4 4 8-10" fill="none" stroke="#059669" stroke-width="2.4"/><text x="50" y="32" class="feature">Safer data</text></g><g transform="translate(344)"><rect width="176" height="54" rx="16" fill="#fff" opacity=".72"/><circle cx="28" cy="27" r="13" fill="#fff7ed"/><path d="M28 19v16M20 27h16" stroke="#d97706" stroke-width="2"/><text x="50" y="32" class="feature">Faster decisions</text></g></g>
<g transform="translate(170 400)"><ellipse cx="205" cy="372" rx="155" ry="28" fill="#17345e" opacity=".13"/><rect x="125" y="215" width="160" height="178" rx="62" fill="#f8fafc" stroke="#d8e5f2" stroke-width="5"/><path d="M160 250c40 28 80 28 110 0v88c-38 26-75 26-110 0z" fill="#174ea6"/><path d="M176 258c20 14 44 14 64 0l14 72c-30 18-61 18-91 0z" fill="#d9a441" opacity=".95"/><rect x="82" y="82" width="246" height="176" rx="82" fill="#f8fafc" stroke="#d8e5f2" stroke-width="6"/><rect x="112" y="116" width="186" height="105" rx="48" fill="#071b35"/><path d="M151 169q20-24 40 0M221 169q20-24 40 0" fill="none" stroke="#63d9ff" stroke-width="9" stroke-linecap="round"/><path d="M189 193q18 16 36 0" fill="none" stroke="#dff7ff" stroke-width="5" stroke-linecap="round"/><circle cx="89" cy="169" r="27" fill="#d89b35"/><circle cx="321" cy="169" r="27" fill="#d89b35"/><circle cx="89" cy="169" r="12" fill="#155eef"/><circle cx="321" cy="169" r="12" fill="#155eef"/><path d="M154 96 172 35l35 37 31-55 27 55 37-37 11 63z" fill="#d89b35" stroke="#fff2c7" stroke-width="5"/><circle cx="238" cy="55" r="10" fill="#155eef"/><path d="M126 272c-54 25-71 67-81 112" stroke="#f8fafc" stroke-width="42" stroke-linecap="round"/><path d="M283 272c54 25 71 67 81 112" stroke="#f8fafc" stroke-width="42" stroke-linecap="round"/><circle cx="44" cy="390" r="24" fill="#155eef"/><circle cx="366" cy="390" r="24" fill="#155eef"/></g>
<g transform="translate(835 92)"><rect width="520" height="718" rx="30" fill="#fff" fill-opacity=".96" stroke="#fff" stroke-width="2"/><path d="M238 49 260 30l22 19-8 29h-28z" fill="#d89b35"/><text x="260" y="132" text-anchor="middle" font-size="34" font-weight="800" class="navy">Welcome back</text><text x="260" y="162" text-anchor="middle" font-size="15" class="muted">Sign in to continue to Sawasdee Hub</text>
<text x="58" y="215" class="label">Email address</text><rect x="58" y="231" width="404" height="58" rx="12" fill="#fff" stroke="#d8e2ee" stroke-width="2"/><circle cx="82" cy="260" r="8" fill="none" stroke="#64748b" stroke-width="2"/><path d="M75 256l7 6 7-6" fill="none" stroke="#64748b"/><text x="106" y="266" class="small muted">name@company.com</text>
<text x="58" y="329" class="label">Password</text><rect x="58" y="345" width="404" height="58" rx="12" fill="#fff" stroke="#d8e2ee" stroke-width="2"/><rect x="76" y="360" width="15" height="17" rx="3" fill="none" stroke="#64748b" stroke-width="2"/><path d="M79 360v-4a5 5 0 0 1 10 0v4" fill="none" stroke="#64748b" stroke-width="2"/><text x="106" y="380" class="small muted">Enter your password</text>
<rect x="58" y="430" width="18" height="18" rx="4" fill="#155eef"/><path d="m63 439 4 4 6-8" stroke="#fff" stroke-width="2" fill="none"/><text x="86" y="444" class="small" fill="#334155">Keep me signed in</text><text x="462" y="444" text-anchor="end" class="small" fill="#155eef">Forgot password?</text>
<rect x="58" y="480" width="404" height="58" rx="12" fill="url(#blue)"/><text x="260" y="516" text-anchor="middle" font-size="16" font-weight="700" fill="#fff">Sign in  →</text>
<line x1="58" y1="575" x2="190" y2="575" stroke="#dbe3ed"/><line x1="330" y1="575" x2="462" y2="575" stroke="#dbe3ed"/><text x="260" y="580" text-anchor="middle" class="small muted">or continue with</text>
<rect x="58" y="606" width="192" height="54" rx="12" fill="#fff" stroke="#d8e2ee"/><rect x="270" y="606" width="192" height="54" rx="12" fill="#fff" stroke="#d8e2ee"/><text x="154" y="639" text-anchor="middle" class="label">▦  SSO (Company)</text><text x="366" y="639" text-anchor="middle" class="label">▦  Microsoft</text>
<text x="260" y="694" text-anchor="middle" font-size="12" class="muted">Secure access • SSO-ready • Enterprise controls</text></g>
</svg>